HIERARCHY
ROOT Hips
{
	OFFSET 49.246399 13.692984 99.974800
	CHANNELS 6 Xposition Yposition Zposition Xrotation Yrotation Zrotation
	JOINT spine
	{
		OFFSET 0.000000 -0.507026 8.817047
		CHANNELS 3 Xrotation Yrotation Zrotation
		JOINT spine1
		{
			OFFSET 0.000000 -0.000001 10.776604
			CHANNELS 3 Xrotation Yrotation Zrotation
			JOINT spine2
			{
				OFFSET 0.000000 -0.000002 10.325897
				CHANNELS 3 Xrotation Yrotation Zrotation
				JOINT Neck
				{
					OFFSET 0.000000 -1.263955 26.511002
					CHANNELS 3 Xrotation Yrotation Zrotation
					JOINT Head
					{
						OFFSET 0.000000 -0.000001 8.009659
						CHANNELS 3 Xrotation Yrotation Zrotation
						End Site
						{
							OFFSET 0.000000 6.393856 19.387894
						}
					}
				}
				JOINT RightShoulder
				{
					OFFSET -4.347950 0.605420 11.151199
					CHANNELS 3 Xrotation Yrotation Zrotation
					JOINT RightArm
					{
						OFFSET 0.000000 -0.000003 14.625793
						CHANNELS 3 Xrotation Yrotation Zrotation
						JOINT RightArmRoll
						{
							OFFSET 0.000000 -0.000001 7.383408
							CHANNELS 3 Xrotation Yrotation Zrotation
							JOINT RightForeArm
							{
								OFFSET 0.000000 -0.000004 21.505203
								CHANNELS 3 Xrotation Yrotation Zrotation
								JOINT RightForeArmRoll
								{
									OFFSET 0.000000 -0.000001 8.285324
									CHANNELS 3 Xrotation Yrotation Zrotation
									JOINT RightHand
									{
										OFFSET 0.000000 -0.000003 16.626801
										CHANNELS 3 Xrotation Yrotation Zrotation
										End Site
										{
											OFFSET 0.000000 0.000000 0.100006
										}
									}
								}
							}
						}
					}
				}
				JOINT LeftShoulder
				{
					OFFSET 4.347950 0.605420 11.151199
					CHANNELS 3 Xrotation Yrotation Zrotation
					JOINT LeftArm
					{
						OFFSET 0.000000 -0.000003 14.625793
						CHANNELS 3 Xrotation Yrotation Zrotation
						JOINT LeftArmRoll
						{
							OFFSET 0.000000 -0.000001 7.383392
							CHANNELS 3 Xrotation Yrotation Zrotation
							JOINT LeftForeArm
							{
								OFFSET 0.000000 -0.000004 21.505203
								CHANNELS 3 Xrotation Yrotation Zrotation
								JOINT LeftForeArmRoll
								{
									OFFSET 0.000000 -0.000001 8.285324
									CHANNELS 3 Xrotation Yrotation Zrotation
									JOINT LeftHand
									{
										OFFSET 0.000000 -0.000003 16.626801
										CHANNELS 3 Xrotation Yrotation Zrotation
										End Site
										{
											OFFSET 0.000000 0.000000 0.100006
										}
									}
								}
							}
						}
					}
				}
			}
		}
	}
	JOINT RightUpLeg
	{
		OFFSET -7.815102 1.202170 -1.433090
		CHANNELS 3 Xrotation Yrotation Zrotation
		JOINT RightUpLegRoll
		{
			OFFSET 0.000000 -0.000003 19.495903
			CHANNELS 3 Xrotation Yrotation Zrotation
			JOINT RightLeg
			{
				OFFSET 0.000000 0.000004 -24.142700
				CHANNELS 3 Xrotation Yrotation Zrotation
				JOINT RightLegRoll
				{
					OFFSET 0.000000 -0.000004 24.221703
					CHANNELS 3 Xrotation Yrotation Zrotation
					JOINT RightFoot
					{
						OFFSET 0.000000 -0.000004 20.160500
						CHANNELS 3 Xrotation Yrotation Zrotation
						JOINT RightToeBase
						{
							OFFSET 0.000000 -0.000003 16.853195
							CHANNELS 3 Xrotation Yrotation Zrotation
							End Site
							{
								OFFSET 0.007145 0.940779 8.161865
							}
						}
					}
				}
			}
		}
	}
	JOINT LeftUpLeg
	{
		OFFSET 7.815102 1.202170 -1.433090
		CHANNELS 3 Xrotation Yrotation Zrotation
		JOINT LeftUpLegRoll
		{
			OFFSET 0.000000 -0.000003 19.496002
			CHANNELS 3 Xrotation Yrotation Zrotation
			JOINT LeftLeg
			{
				OFFSET 0.000000 -0.000004 24.142601
				CHANNELS 3 Xrotation Yrotation Zrotation
				JOINT LeftLegRoll
				{
					OFFSET 0.000000 -0.000004 24.445602
					CHANNELS 3 Xrotation Yrotation Zrotation
					JOINT LeftFoot
					{
						OFFSET 0.000000 -0.000004 19.936600
						CHANNELS 3 Xrotation Yrotation Zrotation
						JOINT LeftToeBase
						{
							OFFSET 0.000000 -0.000003 16.853195
							CHANNELS 3 Xrotation Yrotation Zrotation
							End Site
							{
								OFFSET -0.032013 0.940780 8.161865
							}
						}
					}
				}
			}
		}
	}
}
MOTION
Frames: 11
Frame Time: 0.041667
45.309803 4.463074 107.670006 2.947526 -0.609615 4.535549 -2.404493 0.117929 0.180030 -0.806484 0.230437 0.363923 0.838583 0.234780 0.361138 -6.508764 8.937603 -1.142849 8.114856 -4.603917 -2.051093 -10.835078 -40.710871 -11.698979 72.257411 -126.536795 2.819020 0.000000 -0.000000 0.000001 90.447114 19.185084 -18.190962 0.000001 0.000006 -3.007828 -5.000231 -7.998803 0.000134 -12.894350 49.609426 14.840587 53.899277 106.287825 -15.488793 -0.000004 -0.000005 0.000002 73.080661 2.090916 -0.180373 -0.000001 -0.000008 3.007498 -5.000180 7.998723 -0.000170 -11.235699 -172.447810 4.715878 -179.999991 0.000005 -1.352991 150.429958 -3.833975 -2.340677 -0.000008 -0.000001 0.435518 68.057760 6.772663 2.497409 25.452932 -7.355626 -0.006197 -12.795365 175.833699 -0.868324 -0.000005 -0.000005 -1.133009 -26.621731 4.230822 1.874411 -0.000003 -0.000004 -0.375374 69.333141 -6.831868 -2.254608 25.456953 7.355611 -0.000000 
45.324802 4.536454 107.432007 2.968358 -0.611721 4.537620 -2.403603 0.121556 0.178433 -0.804755 0.237351 0.360717 0.840313 0.241654 0.357850 -6.448904 8.884783 -1.153082 8.038284 -4.560025 -2.057631 -10.883429 -40.734620 -11.764036 72.052328 -126.447333 2.969956 0.000000 -0.000000 0.000001 90.281816 18.978287 -17.902698 -0.000002 0.000006 -3.007828 -5.000233 -7.998800 0.000132 -12.887891 49.610464 14.832575 53.666330 106.286343 -15.458953 -0.000003 -0.000003 0.000001 72.972314 2.154088 -0.229592 -0.000003 -0.000010 3.007503 -5.000179 7.998723 -0.000168 -11.285986 -172.457960 4.699246 -179.999991 0.000005 -1.352991 150.371327 -3.816960 -2.341214 -0.000009 -0.000001 0.435553 68.062637 6.772828 2.496843 25.456969 -7.355619 0.000002 -12.858717 175.859121 -0.851410 -0.000004 -0.000005 -1.132670 -26.661850 4.224921 1.875524 -0.000003 -0.000003 -0.375650 69.333360 -6.831878 -2.254599 25.456943 7.355612 0.000002 
45.302704 4.585775 107.194000 2.989531 -0.611896 4.541345 -2.402126 0.124665 0.177421 -0.801838 0.243050 0.358606 0.843230 0.247327 0.355672 -6.391026 8.830614 -1.166055 7.959758 -4.508315 -2.068405 -10.939935 -40.752774 -11.839443 71.839247 -126.355044 3.111626 -0.000002 -0.000002 -0.000000 90.117379 18.768947 -17.614889 -0.000002 0.000006 -3.007829 -5.000231 -7.998805 0.000133 -12.880641 49.612387 14.823589 53.412066 106.282040 -15.411318 -0.000002 -0.000003 0.000003 72.868071 2.216846 -0.276999 -0.000002 -0.000009 3.007500 -5.000174 7.998723 -0.000167 -11.337279 -172.472057 4.679337 -179.999991 0.000005 -1.351994 150.322819 -3.797715 -2.341550 -0.000006 -0.000001 0.434582 68.051845 6.773976 2.495329 25.436369 -7.355622 0.003399 -12.923095 175.883587 -0.832307 -0.000004 -0.000005 -1.132520 -26.691913 4.215787 1.876183 -0.000001 -0.000003 -0.375196 69.316257 -6.832572 -2.254380 25.439277 7.355619 0.003473 
45.291203 4.622844 106.963005 3.010682 -0.611082 4.546378 -2.400035 0.127507 0.176915 -0.797708 0.248005 0.357425 0.847359 0.252267 0.354431 -6.335121 8.775617 -1.181134 7.879177 -4.449415 -2.082705 -11.004576 -40.764130 -11.925153 71.614998 -126.257836 3.239224 0.000002 -0.000000 0.000000 89.954076 18.556142 -17.326496 -0.000001 0.000006 -3.007831 -5.000235 -7.998803 0.000134 -12.875073 49.613715 14.816639 53.133319 106.274253 -15.342106 -0.000002 -0.000001 0.000002 72.766308 2.279815 -0.323423 -0.000004 -0.000009 3.007502 -5.000174 7.998724 -0.000169 -11.386269 -172.489037 4.655372 -179.999991 0.000005 -1.350996 150.296031 -3.776707 -2.341956 -0.000007 -0.000001 0.431793 68.013139 6.776854 2.492067 25.372317 -7.355624 0.000588 -12.984458 175.907984 -0.809551 -0.000004 -0.000004 -1.132680 -26.699180 4.203378 1.875991 -0.000003 -0.000004 -0.373327 69.269784 -6.834542 -2.253708 25.390989 7.355606 0.012989 
45.278404 4.680758 106.719009 3.032044 -0.609281 4.552632 -2.397436 0.130092 0.176846 -0.792525 0.252274 0.357054 0.852543 0.256531 0.354008 -6.280711 8.719723 -1.198162 7.796599 -4.384026 -2.100146 -11.076330 -40.769973 -12.019872 71.382560 -126.155957 3.357094 0.000003 -0.000000 -0.000000 89.791552 18.339854 -17.037550 0.000000 0.000009 -3.007826 -5.000230 -7.998804 0.000133 -12.870594 49.614832 14.811006 52.832743 106.263468 -15.253723 -0.000002 -0.000004 0.000001 72.666984 2.342687 -0.368652 -0.000002 -0.000009 3.007499 -5.000176 7.998722 -0.000169 -11.434477 -172.508927 4.628305 -179.999991 0.000005 -1.350996 150.285089 -3.752809 -2.342324 -0.000007 -0.000001 0.427622 67.953006 6.781062 2.487683 25.275036 -7.355625 -0.006788 -13.044717 175.932368 -0.783944 -0.000005 -0.000004 -1.133090 -26.689990 4.188113 1.875167 -0.000001 -0.000004 -0.370392 69.200710 -6.837416 -2.252901 25.319265 7.355567 0.027129 
45.299904 4.835797 106.452011 3.053863 -0.606491 4.559965 -2.394385 0.132433 0.177154 -0.786446 0.255916 0.357380 0.858622 0.260177 0.354289 -6.227349 8.662826 -1.216983 7.712100 -4.312872 -2.120342 -11.154098 -40.771291 -12.122247 71.140894 -126.050458 3.464915 0.000003 -0.000001 -0.000000 89.629342 18.120535 -16.747991 0.000000 0.000008 -3.007828 -5.000233 -7.998802 0.000132 -12.866660 49.616270 14.806050 52.515661 106.249671 -15.151308 -0.000000 -0.000000 0.000003 72.570357 2.405112 -0.412549 -0.000007 -0.000009 3.007500 -5.000176 7.998723 -0.000166 -11.483532 -172.530797 4.598854 -179.999991 0.000005 -1.349986 150.283928 -3.727543 -2.343054 -0.000007 -0.000001 0.422501 67.878249 6.786157 2.482479 25.154526 -7.355619 -0.017122 -13.105776 175.956752 -0.756323 -0.000005 -0.000005 -1.133670 -26.670881 4.170416 1.873962 -0.000006 -0.000003 -0.366739 69.115599 -6.840923 -2.252003 25.230978 7.355496 0.044525 
45.280106 4.873315 106.203011 3.076362 -0.602713 4.568261 -2.390976 0.134544 0.177773 -0.779630 0.258988 0.358286 0.865438 0.263260 0.355157 -6.174598 8.604867 -1.237407 7.625711 -4.236675 -2.142909 -11.236825 -40.769382 -12.230961 70.891681 -125.941817 3.565496 0.000002 0.000000 -0.000000 89.467029 17.898331 -16.457570 0.000000 0.000006 -3.007832 -5.000233 -7.998805 0.000133 -12.862676 49.618425 14.801046 52.183844 106.233819 -15.036134 -0.000002 -0.000003 0.000003 72.476271 2.466786 -0.454955 -0.000004 -0.000008 3.007500 -5.000178 7.998724 -0.000169 -11.535055 -172.554703 4.567978 -179.999991 0.000004 -1.349985 150.286701 -3.701557 -2.343035 -0.000008 -0.000001 0.416864 67.795290 6.791859 2.476710 25.021198 -7.355584 -0.028726 -13.169343 175.981176 -0.727516 -0.000005 -0.000004 -1.134380 -26.648185 4.150685 1.872586 -0.000004 -0.000004 -0.362714 69.021042 -6.844848 -2.251076 25.133293 7.355369 0.063771 
45.257004 4.880877 105.939003 3.099797 -0.597945 4.577400 -2.387276 0.136436 0.178639 -0.772235 0.261551 0.359652 0.872832 0.265838 0.356493 -6.121994 8.545755 -1.259295 7.537483 -4.156142 -2.167467 -11.323442 -40.765216 -12.344673 70.636532 -125.830376 3.661705 0.000000 0.000000 -0.000002 89.304204 17.673545 -16.166528 0.000001 0.000006 -3.007833 -5.000231 -7.998805 0.000130 -12.858032 49.621662 14.795264 51.840477 106.216333 -14.911338 0.000001 -0.000004 0.000003 72.384992 2.527360 -0.495712 -0.000000 -0.000009 3.007502 -5.000178 7.998724 -0.000171 -11.590808 -172.578718 4.536176 -179.999991 0.000005 -1.348988 150.287343 -3.675491 -2.344151 -0.000007 -0.000001 0.411144 67.711033 6.797722 2.470761 24.884935 -7.355549 -0.040021 -13.237235 176.004686 -0.698143 -0.000003 -0.000005 -1.135140 -26.628350 4.129366 1.871276 -0.000005 -0.000004 -0.358667 68.923603 -6.848891 -2.250158 25.033275 7.355198 0.083485 
45.245102 4.961395 105.675003 3.124407 -0.592186 4.587254 -2.383368 0.138123 0.179689 -0.764419 0.263662 0.361368 0.880647 0.267969 0.358182 -6.069090 8.485404 -1.282469 7.447497 -4.072014 -2.193640 -11.412923 -40.760117 -12.462093 70.374519 -125.717200 3.753295 -0.000001 -0.000000 0.000002 89.140389 17.446292 -15.874703 0.000001 0.000007 -3.007831 -5.000232 -7.998801 0.000131 -12.852155 49.626444 14.788029 51.492356 106.196587 -14.783545 0.000000 -0.000005 0.000002 72.296473 2.586516 -0.534663 -0.000002 -0.000009 3.007500 -5.000180 7.998724 -0.000170 -11.652203 -172.602869 4.504443 -179.999991 0.000005 -1.347991 150.279871 -3.649998 -2.345282 -0.000008 -0.000001 0.405777 67.631857 6.803351 2.464861 24.756043 -7.355516 -0.049325 -13.311369 176.026351 -0.668782 -0.000005 -0.000004 -1.135900 -26.617804 4.106847 1.870227 -0.000001 -0.000004 -0.354946 68.830029 -6.852710 -2.249368 24.938013 7.354994 0.102248 
45.237003 5.028038 105.411011 3.150413 -0.585438 4.597712 -2.379327 0.139616 0.180858 -0.756342 0.265381 0.363314 0.888724 0.269710 0.360107 -6.015440 8.423751 -1.306736 7.355773 -3.984999 -2.221056 -11.504164 -40.755056 -12.581871 70.105827 -125.602753 3.841549 -0.000001 -0.000002 0.000002 88.975208 17.216745 -15.582151 0.000000 0.000006 -3.007828 -5.000237 -7.998802 0.000133 -12.844462 49.633229 14.778629 51.139447 106.176144 -14.652105 -0.000003 -0.000005 0.000002 72.210713 2.643931 -0.571653 -0.000002 -0.000007 3.007499 -5.000177 7.998722 -0.000170 -11.720950 -172.627239 4.473687 -179.999991 0.000005 -1.346993 150.258342 -3.626617 -2.346786 -0.000007 -0.000001 0.401195 67.564662 6.808302 2.459499 24.644644 -7.355525 -0.055032 -13.393449 176.046172 -0.640286 -0.000004 -0.000004 -1.136601 -26.622986 4.083567 1.869648 -0.000004 -0.000004 -0.351898 68.746872 -6.856042 -2.248948 24.854464 7.354772 0.118714 
45.221405 5.083167 105.147003 3.178074 -0.577697 4.608656 -2.375237 0.140930 0.182085 -0.748161 0.266764 0.365376 0.896904 0.271118 0.362150 -5.960594 8.360709 -1.331948 7.262380 -3.895831 -2.249348 -11.596183 -40.751241 -12.702735 69.833439 -125.486981 3.930966 0.000002 -0.000000 0.000002 88.808175 16.985162 -15.288731 -0.000000 0.000009 -3.007829 -5.000235 -7.998808 0.000128 -12.834346 49.642310 14.766336 50.788884 106.154370 -14.524184 0.000003 -0.000006 0.000003 72.127802 2.699273 -0.606535 0.000000 -0.000009 3.007499 -5.000178 7.998723 -0.000170 -11.798611 -172.649861 4.444462 -179.999991 0.000005 -1.345997 150.216747 -3.604256 -2.348515 -0.000007 -0.000001 0.397831 67.515908 6.812181 2.454785 24.560816 -7.355590 -0.055511 -13.485467 176.065201 -0.613700 -0.000005 -0.000004 -1.137170 -26.650338 4.059934 1.869721 -0.000004 -0.000003 -0.349873 68.680660 -6.858595 -2.248837 24.789714 7.354585 0.131475 
